PathFileType	4	(X/Y/Z)	Patient4_TMGait_0pt2_02_right_09.trc.trc
DataRate	CameraRate	NumFrames	NumMarkers	Units	OrigDataRate	OrigDataStartFrame	OrigNumFrames
41.420118343195	41.420118343195	4	33	mm	41.420118343195	53	       141
Frame#	Time	R.Midfoot.Superior			Sacral			L.Shoulder			Chest			R.Shoulder			Neck			R.ASIS			L.ASIS			R.Thigh.Superior			R.Thigh.Lateral			R.Thigh.Inferior			R.Patella			L.Thigh.Superior			L.Thigh.Lateral			L.Thigh.Inferior			L.Patella			L.Shank.Superior			L.Shank.Lateral			L.Shank.Inferior			R.Shank.Superior			R.Shank.Lateral			R.Shank.Inferior			R.Heel			R.Midfoot.Lateral			R.Toe			L.Heel			L.Midfoot.Lateral			L.Midfoot.Superior			L.Toe			L.Elbow			L.Wrist			R.Elbow			R.Wrist			
		X1	Y1	Z1	X2	Y2	Z2	X3	Y3	Z3	X4	Y4	Z4	X5	Y5	Z5	X6	Y6	Z6	X7	Y7	Z7	X8	Y8	Z8	X9	Y9	Z9	X10	Y10	Z10	X11	Y11	Z11	X12	Y12	Z12	X13	Y13	Z13	X14	Y14	Z14	X15	Y15	Z15	X16	Y16	Z16	X17	Y17	Z17	X18	Y18	Z18	X19	Y19	Z19	X20	Y20	Z20	X21	Y21	Z21	X22	Y22	Z22	X23	Y23	Z23	X24	Y24	Z24	X25	Y25	Z25	X26	Y26	Z26	X27	Y27	Z27	X28	Y28	Z28	X29	Y29	Z29	X30	Y30	Z30	X31	Y31	Z31	X32	Y32	Z32	X33	Y33	Z33	

53	20.405428571429	1040.803449376111	95.929831372352	597.435564755479	824.249628255964	985.839760319011	575.317842977228	1023.723109629376	1402.052996814591	375.560452255482	1117.047692728265	1337.749311905630	543.054590422846	1032.326546372557	1420.925836282904	711.088693117611	1004.965016526927	1473.006745275302	530.459003514342	1059.829475283261	923.463964580887	687.037344678967	1036.227900610591	941.056927656674	413.631488388042	1119.373200773404	732.330383094897	633.441209219511	1054.239244300687	609.084569647050	685.439073597565	1128.502820227340	571.049076866421	593.734452828068	1137.255803670762	474.259838702159	592.049614660695	1119.744636070068	755.202675336793	444.033191714148	1073.098318512996	629.312912529237	364.223220225793	1170.350491212107	563.025060376171	431.952985047861	1178.496762910001	473.417481411695	419.973726475472	1108.685896223385	411.342574285045	401.674095455138	966.478866730639	379.494307971672	344.324698686194	947.423087699284	244.877458567380	384.229970490986	1091.697345310149	386.107249578549	597.597045077091	1010.162577926777	290.809242936335	661.694074922339	1027.365718934558	195.557503849262	591.747250059192	867.853032208599	43.965616123355	569.609738676019	953.953549316952	37.443661028994	640.074499853178	1161.765841673213	42.852513261655	621.395902188562	753.500610799510	189.028901526687	412.644023338723	808.740172342555	146.393641963675	328.855186761230	914.424995043782	143.827737807993	351.123771321394	984.423365940316	32.692547856643	313.130231432165	1018.166279957580	1041.920769173272	273.136342045284	1103.547973502218	799.481435238634	272.415466783970	1013.811847856970	1076.546159519178	850.442245874314	1138.797116839005	849.277639914915	870.044829825334	
54	20.429571428571	1036.071187979518	95.850642643317	597.241865770338	823.079066871210	984.132886027961	580.647748887418	1017.781639437365	1399.941594544338	376.176642061285	1115.428310899042	1335.882588442235	541.310060878195	1035.316726711169	1419.311222909924	711.529220863507	1003.453907094566	1471.244766650127	531.348816446148	1060.761076931363	921.637471947108	687.490358756384	1031.706078769862	939.920232585043	414.784490561813	1120.018404760557	730.723676440854	632.720555323301	1056.095827117595	607.204393418465	685.113485978029	1128.964100930186	569.702655019939	591.971120204656	1137.742691045843	472.454081519894	589.932610150828	1119.883004993247	758.043673582360	446.233592576637	1076.783636995043	630.815830377096	366.693790962906	1175.437031099765	566.941934656508	435.022133425608	1185.768702655116	477.147527052362	422.661951137540	1116.741536432732	413.813092906047	404.135457561713	974.525131859298	380.272313109334	347.924311439858	958.179769351907	245.194335769750	387.127289634021	1091.070360140885	384.426600942004	596.185913924787	1008.936082603684	289.989419095066	661.025377324542	1024.302268722594	194.617333061618	591.054992731144	863.061936010359	43.974527710456	569.723176408787	949.165331948471	37.466519770053	640.182558763532	1156.996433581120	42.646232737075	621.365520496288	765.843038081073	185.467150083601	416.867630644578	820.797976727395	145.626620937404	331.789217639292	926.461689160679	144.597477887523	353.350954238422	997.799032403314	34.235255188472	312.304013448010	994.038874137438	1039.521205546837	277.837898587920	1054.893320336811	788.637462559959	277.399010288446	1033.293596451188	1075.344056138283	853.526056671292	1178.545495947000	860.491663158168	868.744189004373	
55	20.453714285714	1031.292871644430	95.790790317237	597.103779617588	822.068651844730	983.250713501654	585.671124533194	1011.921506924415	1398.713191591280	376.834633589626	1113.919289190989	1334.673348025391	539.343030803165	1038.653795492716	1418.300978444012	711.698196744577	1002.107930066452	1470.163447251669	532.170504613656	1061.610396384340	920.324699501295	687.530135236256	1027.176376875828	939.423840208249	415.603658311570	1119.954082642231	729.318445293283	631.830206764401	1056.842726350502	605.815779306993	684.782905674954	1128.187358925297	568.549861142170	590.312947904382	1136.788149594432	471.030091316498	588.035352776297	1119.057798492795	761.006896283103	447.819674951109	1078.698137961408	632.675073199924	368.630462318811	1178.531017153714	570.916646754675	437.273753025410	1191.005084207850	481.325494991966	424.618887183521	1123.513967321893	416.577950236263	406.008274128888	982.059431856302	379.434558008340	351.010454937633	970.277210215674	243.998986220837	389.709106471632	1089.267948254975	383.152724343539	594.973315523570	1006.822271006288	289.360696026212	660.513938452291	1020.740766168173	193.918055472521	590.507402096055	858.231680716517	43.959562821334	569.848504137098	944.347581013305	37.481864278572	640.326993855414	1152.185571880800	42.509983988302	621.331157574323	780.874014796610	177.462088613148	420.924813802900	836.046687251011	141.334425960927	334.632650329296	941.352735792751	143.799670645284	355.438073866674	1015.825240913511	36.125171408488	311.571505518063	969.391904727284	1039.471489868847	282.066812131514	1007.239593497787	782.988869459065	283.082820828333	1053.030878056540	1075.543178115451	855.634962128094	1217.850018089334	875.194487985224	865.313307528820	
56	20.477857142857	1026.467444773899	95.749562061463	597.028753333954	821.215783976673	983.244522405565	590.381815463776	1006.197307784788	1398.439224938321	377.549922583578	1112.540074711367	1334.166613240399	537.168867311230	1042.340875748497	1417.933192364610	711.586078025813	1000.951563256937	1469.811670827970	532.932736911752	1062.370962279438	919.584399944067	687.173137882635	1022.667213553508	939.606668294934	416.087184805706	1119.146199940424	728.164474200786	630.830184808012	1056.425783993984	604.967883355758	684.521622642290	1126.143180071064	567.627136206363	588.860863121427	1134.354023385968	470.025685388253	586.475176058774	1117.299098916053	764.048154540215	448.788003470927	1078.872944476100	634.829278135967	370.000008559554	1179.672917277114	574.854234133342	438.664813052465	1194.232072779599	485.877275426060	425.797798726147	1129.036550501163	419.605113341212	407.235089201654	989.259937770302	377.047157918980	353.378481368770	983.760726500475	241.480231117179	391.801603095524	1086.255066709450	382.323955253943	594.045688492331	1003.784105078052	288.941319285569	660.206236313656	1016.666850266833	193.478188829048	590.136527574188	853.360987567975	43.926748902312	569.981303772601	939.500111397874	37.489252768736	640.501243794405	1147.334803349199	42.438129621668	621.295589397249	798.667207235153	165.671880393373	424.473962143605	854.541251162209	133.867982905350	337.167050118368	959.105888669974	141.527216542517	357.248466818221	1038.243201603409	38.230512449147	311.091830425993	944.570858375944	1041.834446232718	285.883775706558	961.492896620967	782.225300813793	289.422999326700	1072.918933222361	1077.140282817212	856.701784578195	1256.048033698782	893.247911259533	859.757697713582	
